<svg width="22" height="22" viewBox="0 0 22 22" fill="none" xmlns="http://www.w3.org/2000/svg">
<path d="M11 0C4.93355 0 0 4.93355 0 11C0 17.0665 4.93355 22 11 22C17.0664 22 22 17.0665 22 11C22 4.93355 17.0664 0 11 0ZM11 1.46667C16.2738 1.46667 20.5333 5.72619 20.5333 11C20.5333 16.2738 16.2738 20.5333 11 20.5333C5.7262 20.5333 1.46667 16.2738 1.46667 11C1.46667 5.72619 5.7262 1.46667 11 1.46667Z" fill="#2F99CC"/>
<path d="M7.85742 11.8569L10.7146 14.1426L14.7146 7.85693" stroke="#2F99CC" stroke-width="1.5" stroke-linecap="round" stroke-linejoin="round"/>
</svg>
