<svg width="44" height="30" viewBox="0 0 44 30" fill="none" xmlns="http://www.w3.org/2000/svg">
<path d="M3.12497 0.5H29.4699L43.2499 14.2265V26.875C43.2499 28.3252 42.074 29.5 40.6249 29.5H3.12497C1.67591 29.5 0.5 28.3252 0.5 26.875V3.12497C0.5 1.67478 1.67606 0.5 3.12497 0.5Z" stroke="#E2574C"/>
<path d="M10.0645 20.4242V11.293H13.4143C14.2593 11.293 14.9448 11.556 15.4708 12.0819C16.0054 12.5993 16.2727 13.2891 16.2727 14.1513C16.2727 15.0136 16.0054 15.712 15.4708 16.2466C14.9362 16.7812 14.2507 17.0485 13.4143 17.0485H11.3449V20.4242H10.0645ZM11.3449 15.9362H13.2074C13.7506 15.9362 14.1817 15.7767 14.5007 15.4577C14.8198 15.1386 14.9793 14.7032 14.9793 14.1513C14.9793 13.6081 14.8198 13.1813 14.5007 12.8709C14.1903 12.5605 13.7635 12.4053 13.2203 12.4053H11.3449V15.9362Z" fill="#E2574C"/>
<path d="M17.9081 20.4242V11.293H20.9475C22.353 11.293 23.4739 11.6982 24.3103 12.5087C25.1467 13.3106 25.5649 14.423 25.5649 15.8457C25.5649 17.277 25.1467 18.3979 24.3103 19.2085C23.4739 20.019 22.353 20.4242 20.9475 20.4242H17.9081ZM19.1885 19.3119H20.857C21.9003 19.3119 22.7238 19.0145 23.3274 18.4195C23.9396 17.8159 24.2457 16.958 24.2457 15.8457C24.2457 14.7506 23.9396 13.9056 23.3274 13.3106C22.7152 12.7071 21.8917 12.4053 20.857 12.4053H19.1885V19.3119Z" fill="#E2574C"/>
<path d="M27.4443 20.4242V11.293H32.4755V12.4053H28.7247V15.4189H31.9194V16.5312H28.7247V20.4242H27.4443Z" fill="#E2574C"/>
</svg>
