<svg width="22" height="22" viewBox="0 0 22 22" fill="none" xmlns="http://www.w3.org/2000/svg">
<path d="M11 0C4.93355 0 0 4.93355 0 11C0 17.0665 4.93355 22 11 22C17.0664 22 22 17.0665 22 11C22 4.93355 17.0664 0 11 0ZM11 1.46667C16.2738 1.46667 20.5333 5.72619 20.5333 11C20.5333 16.2738 16.2738 20.5333 11 20.5333C5.7262 20.5333 1.46667 16.2738 1.46667 11C1.46667 5.72619 5.7262 1.46667 11 1.46667Z" fill="#CECFCF"/>
<path fill-rule="evenodd" clip-rule="evenodd" d="M11 6.18766C11.3797 6.18766 11.6875 6.49547 11.6875 6.87516L11.6875 10.9999C11.6875 11.3796 11.3797 11.6874 11 11.6874L6.87504 11.6877C6.49534 11.6877 6.18752 11.3799 6.1875 11.0002C6.18748 10.6205 6.49526 10.3127 6.87496 10.3127L10.3125 10.3125L10.3125 6.87516C10.3125 6.49547 10.6203 6.18766 11 6.18766Z" fill="#CECFCF"/>
<path fill-rule="evenodd" clip-rule="evenodd" d="M11.0001 15.8126C10.6204 15.8126 10.3125 15.5048 10.3125 15.1251L10.3122 11.0007C10.3121 10.8183 10.3846 10.6435 10.5135 10.5145C10.6424 10.3856 10.8173 10.3131 10.9996 10.3131L15.1245 10.313C15.5042 10.313 15.812 10.6208 15.8121 11.0005C15.8121 11.3802 15.5043 11.688 15.1246 11.688L11.6872 11.6881L11.6875 15.125C11.6875 15.5047 11.3798 15.8125 11.0001 15.8126Z" fill="#CECFCF"/>
</svg>
