<svg width="20" height="18" viewBox="0 0 20 18" fill="none" xmlns="http://www.w3.org/2000/svg">
<path d="M10 1C5.58804 1 2 4.58804 2 9C2 13.412 5.58804 17 10 17C14.412 17 18 13.412 18 9C18 4.58804 14.412 1 10 1ZM10 2.06667C13.8355 2.06667 16.9333 5.16451 16.9333 9C16.9333 12.8355 13.8355 15.9333 10 15.9333C6.16451 15.9333 3.06667 12.8355 3.06667 9C3.06667 5.16451 6.16451 2.06667 10 2.06667Z" fill="#4CAE4C"/>
<path fill-rule="evenodd" clip-rule="evenodd" d="M10 5.50017C10.2761 5.50017 10.5 5.72402 10.5 6.00017L10.5 8.99999C10.5 9.27613 10.2762 9.49998 10 9.49999L7.00003 9.50017C6.72389 9.50018 6.50002 9.27634 6.5 9.0002C6.49998 8.72405 6.72383 8.50018 6.99997 8.50017L9.5 8.50002L9.5 6.00017C9.5 5.72402 9.72386 5.50017 10 5.50017Z" fill="#4CAE4C"/>
<path fill-rule="evenodd" clip-rule="evenodd" d="M10 12.5C9.7239 12.5 9.50002 12.2762 9.5 12.0001L9.49975 9.00045C9.49974 8.86784 9.55241 8.74065 9.64618 8.64687C9.73994 8.5531 9.86712 8.50041 9.99974 8.50041L12.9997 8.50034C13.2758 8.50033 13.4997 8.72419 13.4997 9.00033C13.4997 9.27647 13.2758 9.50033 12.9997 9.50034L10.4998 9.5004L10.5 12C10.5 12.2761 10.2762 12.5 10 12.5Z" fill="#4CAE4C"/>
</svg>
