<svg width="17" height="14" viewBox="0 0 17 14" fill="none" xmlns="http://www.w3.org/2000/svg">
<path fill-rule="evenodd" clip-rule="evenodd" d="M8.8211 1.91577C6.09496 1.91577 3.88499 4.05304 3.88499 6.68951C3.88499 6.93368 3.68032 7.13161 3.42785 7.13161C3.17537 7.13161 2.9707 6.93368 2.9707 6.68951C2.9707 3.56471 5.59002 1.03156 8.8211 1.03156C12.0522 1.03156 14.6715 3.56471 14.6715 6.68951C14.6715 9.81431 12.0522 12.3475 8.8211 12.3475C8.56863 12.3475 8.36396 12.1495 8.36396 11.9054C8.36396 11.6612 8.56863 11.4633 8.8211 11.4633C11.5472 11.4633 13.7572 9.32597 13.7572 6.68951C13.7572 4.05304 11.5472 1.91577 8.8211 1.91577Z" fill="#444444"/>
<path fill-rule="evenodd" clip-rule="evenodd" d="M6.56559 5.69602C6.56559 5.45186 6.77026 5.25392 7.02273 5.25392L9.84777 5.25392C9.96901 5.25392 10.0853 5.3005 10.171 5.38341C10.2567 5.46632 10.3049 5.57877 10.3049 5.69602L10.3049 8.42813C10.3049 8.6723 10.1002 8.87024 9.84777 8.87024C9.5953 8.87024 9.39063 8.6723 9.39063 8.42813L9.39063 6.76336L4.52094 11.4729C4.34241 11.6455 4.05297 11.6455 3.87444 11.4729C3.69592 11.3002 3.69592 11.0203 3.87444 10.8476L8.74413 6.13813L7.02273 6.13813C6.77026 6.13813 6.56559 5.94019 6.56559 5.69602Z" fill="#444444"/>
</svg>
