<svg width="22" height="22" viewBox="0 0 22 22" fill="none" xmlns="http://www.w3.org/2000/svg">
<path d="M-4.80825e-07 11C-2.15652e-07 17.0664 4.93355 22 11 22C17.0665 22 22 17.0664 22 11C22 4.93355 17.0665 -7.45998e-07 11 -4.80825e-07C4.93355 -2.15652e-07 -7.45998e-07 4.93355 -4.80825e-07 11ZM1.46667 11C1.46667 5.7262 5.72619 1.46667 11 1.46667C16.2738 1.46667 20.5333 5.7262 20.5333 11C20.5333 16.2738 16.2738 20.5333 11 20.5333C5.72619 20.5333 1.46667 16.2738 1.46667 11Z" fill="#2F99CC"/>
<path d="M7.91131 17C7.14472 17 6.42079 16.6962 5.86225 16.1377C5.27742 15.5529 4.97194 14.7866 5.00203 13.98C5.03313 13.1469 5.40946 12.3467 6.09037 11.6658L7.31633 10.4348C7.499 10.2514 7.79579 10.2508 7.97924 10.4335C8.16266 10.6162 8.16329 10.913 7.98059 11.0964L6.75398 12.3281C5.75997 13.3221 5.66617 14.6158 6.5252 15.4748C7.38425 16.3339 8.67798 16.2401 9.67125 15.2467L11.3561 13.5619C11.8668 13.0512 12.1484 12.4681 12.1705 11.8757C12.1908 11.3326 11.9826 10.8142 11.5842 10.4158C11.4507 10.2824 11.3031 10.1691 11.1453 10.0792C10.9203 9.95109 10.8418 9.66485 10.9699 9.43992C11.0981 9.21497 11.3843 9.1365 11.6092 9.26461C11.8398 9.39595 12.0544 9.56025 12.2471 9.75293C12.832 10.3378 13.1375 11.1041 13.1074 11.9107C13.0763 12.7437 12.6999 13.5439 12.019 14.2248L10.3342 15.9097C9.65325 16.5906 8.85305 16.9669 8.02002 16.998C7.98374 16.9993 7.94743 17 7.91131 17ZM11.0301 12.5601C11.1582 12.3351 11.0797 12.0489 10.8548 11.9208C10.697 11.8309 10.5493 11.7176 10.4158 11.5842C9.55678 10.7252 9.65058 9.43144 10.6439 8.43811L12.3287 6.75328C13.3221 5.75997 14.6158 5.66615 15.4748 6.52518C16.3338 7.38421 16.24 8.67794 15.246 9.67195L14.0194 10.9036C13.8367 11.087 13.8373 11.3839 14.0208 11.5665C14.2042 11.7492 14.501 11.7486 14.6837 11.5652L15.9096 10.3342C16.5905 9.65327 16.9668 8.85304 16.998 8.02003C17.0281 7.21342 16.7226 6.44711 16.1377 5.86227C15.5529 5.27741 14.7862 4.97198 13.98 5.00202C13.147 5.03312 12.3467 5.40946 11.6659 6.09037L9.981 7.7752C9.3001 8.45611 8.92379 9.25633 8.89266 10.0894C8.86257 10.896 9.16805 11.6623 9.75288 12.2471C9.94556 12.4398 10.1602 12.6041 10.3908 12.7354C10.464 12.7771 10.5437 12.7969 10.6223 12.7969C10.7853 12.7969 10.9436 12.7118 11.0301 12.5601Z" fill="#2F99CC" stroke="#2F99CC" stroke-width="0.4"/>
</svg>
