<svg width="22" height="22" viewBox="0 0 22 22" fill="none" xmlns="http://www.w3.org/2000/svg">
<path d="M11 0C4.93355 0 0 4.93355 0 11C0 17.0665 4.93355 22 11 22C17.0664 22 22 17.0665 22 11C22 4.93355 17.0664 0 11 0ZM11 1.46667C16.2738 1.46667 20.5333 5.72619 20.5333 11C20.5333 16.2738 16.2738 20.5333 11 20.5333C5.7262 20.5333 1.46667 16.2738 1.46667 11C1.46667 5.72619 5.7262 1.46667 11 1.46667Z" fill="#CECFCF"/>
<path fill-rule="evenodd" clip-rule="evenodd" d="M8.56956 7.59705C8.30107 7.32856 7.86577 7.32856 7.59729 7.59705C7.3288 7.86553 7.3288 8.30083 7.59729 8.56932L10.0278 10.9999L7.59726 13.4307C7.32879 13.6992 7.32881 14.1345 7.59732 14.403C7.86582 14.6714 8.30112 14.6714 8.56959 14.4029L10.9999 11.9723L13.4308 14.4028C13.6993 14.6713 14.1346 14.6713 14.4031 14.4028C14.6715 14.1343 14.6715 13.699 14.403 13.4305L11.9725 11.0004L14.4031 8.56979C14.6715 8.3013 14.6715 7.866 14.403 7.59752C14.1345 7.32904 13.6992 7.32905 13.4308 7.59754L11.0005 10.028L8.56956 7.59705Z" fill="#CECFCF"/>
</svg>
