<svg width="22" height="22" viewBox="0 0 22 22" fill="#2A6496" xmlns="http://www.w3.org/2000/svg">
<path d="M-4.80825e-07 11C-2.15652e-07 17.0664 4.93355 22 11 22C17.0665 22 22 17.0664 22 11C22 4.93355 17.0665 -7.45998e-07 11 -4.80825e-07C4.93355 -2.15652e-07 -7.45998e-07 4.93355 -4.80825e-07 11ZM1.46667 11C1.46667 5.7262 5.72619 1.46667 11 1.46667C16.2738 1.46667 20.5333 5.7262 20.5333 11C20.5333 16.2738 16.2738 20.5333 11 20.5333C5.72619 20.5333 1.46667 16.2738 1.46667 11Z" fill="#2A6496"/>
<path d="M13.4864 11.5996L7.6 11.5996C7.26863 11.5996 7 11.331 7 10.9996C7 10.6682 7.26863 10.3996 7.6 10.3996L13.4987 10.3996L11.6621 8.56333C11.3936 8.29486 11.3936 7.85956 11.6621 7.59105C11.9305 7.32255 12.3658 7.32251 12.6343 7.59097L15.551 10.5072C15.68 10.6361 15.7524 10.811 15.7524 10.9933C15.7524 11.1756 15.68 11.3505 15.5511 11.4795L12.6344 14.3963C12.3659 14.6648 11.9306 14.6648 11.6621 14.3963C11.3936 14.1278 11.3936 13.6925 11.6621 13.424L13.4864 11.5996Z" fill="#2A6496"/>
</svg>
