<svg width="23" height="22" viewBox="0 0 23 22" fill="none" xmlns="http://www.w3.org/2000/svg">
<path d="M11.4668 0C5.40035 0 0.466797 4.93355 0.466797 11C0.466797 17.0665 5.40035 22 11.4668 22C17.5332 22 22.4668 17.0665 22.4668 11C22.4668 4.93355 17.5332 0 11.4668 0ZM11.4668 1.46667C16.7406 1.46667 21.0001 5.72619 21.0001 11C21.0001 16.2738 16.7406 20.5333 11.4668 20.5333C6.193 20.5333 1.93346 16.2738 1.93346 11C1.93346 5.72619 6.193 1.46667 11.4668 1.46667Z" fill="#CECFCF"/>
<path fill-rule="evenodd" clip-rule="evenodd" d="M9.03636 7.59705C8.76787 7.32856 8.33257 7.32856 8.06408 7.59705C7.7956 7.86553 7.7956 8.30083 8.06408 8.56932L10.4946 10.9999L8.06406 13.4307C7.79559 13.6992 7.79561 14.1345 8.06411 14.403C8.33261 14.6714 8.76791 14.6714 9.03638 14.4029L11.4667 11.9723L13.8976 14.4028C14.1661 14.6713 14.6014 14.6713 14.8699 14.4028C15.1383 14.1343 15.1383 13.699 14.8698 13.4305L12.4393 11.0004L14.8699 8.56979C15.1383 8.3013 15.1383 7.866 14.8698 7.59752C14.6013 7.32904 14.166 7.32905 13.8976 7.59754L11.4673 10.028L9.03636 7.59705Z" fill="#CECFCF"/>
</svg>
