<svg width="24" height="24" viewBox="0 0 24 24" fill="none" xmlns="http://www.w3.org/2000/svg">
<path d="M6.34338 6.34315C3.22365 9.46287 3.22365 14.5371 6.34338 17.6569C9.46311 20.7766 14.5374 20.7766 17.6571 17.6569C20.7768 14.5371 20.7768 9.46288 17.6571 6.34315C14.5374 3.22342 9.4631 3.22342 6.34338 6.34315ZM7.09762 7.09739C9.80973 4.38529 14.1907 4.38529 16.9028 7.09739C19.6149 9.80949 19.6149 14.1905 16.9028 16.9026C14.1907 19.6147 9.80972 19.6147 7.09762 16.9026C4.38552 14.1905 4.38552 9.80949 7.09762 7.09739Z" fill="#D02D42"/>
<path fill-rule="evenodd" clip-rule="evenodd" d="M9.52535 9.52523C9.72062 9.32997 10.0372 9.32997 10.2325 9.52523L12.3537 11.6464C12.5489 11.8417 12.5489 12.1582 12.3537 12.3535L10.2325 14.475C10.0372 14.6702 9.72065 14.6702 9.52537 14.475C9.3301 14.2797 9.33008 13.9632 9.52533 13.7679L11.293 12L9.52535 10.2323C9.33009 10.0371 9.33009 9.72049 9.52535 9.52523Z" fill="#D02D42"/>
<path fill-rule="evenodd" clip-rule="evenodd" d="M14.4757 14.4749C14.2804 14.6701 13.9638 14.6702 13.7685 14.4749L11.6473 12.3541C11.5535 12.2603 11.5009 12.1331 11.5008 12.0005C11.5008 11.8679 11.5535 11.7407 11.6473 11.6469L13.7685 9.52561C13.9638 9.33034 14.2803 9.33034 14.4756 9.52559C14.6709 9.72085 14.6709 10.0374 14.4756 10.2327L12.708 12.0004L14.4756 13.7678C14.6709 13.963 14.6709 14.2796 14.4757 14.4749Z" fill="#D02D42"/>
</svg>
