<svg width="22" height="22" viewBox="0 0 22 22" fill="none" xmlns="http://www.w3.org/2000/svg">
<path d="M11 0C4.93355 0 0 4.93355 0 11C0 17.0665 4.93355 22 11 22C17.0664 22 22 17.0665 22 11C22 4.93355 17.0664 0 11 0ZM11 1.46667C16.2738 1.46667 20.5333 5.72619 20.5333 11C20.5333 16.2738 16.2738 20.5333 11 20.5333C5.7262 20.5333 1.46667 16.2738 1.46667 11C1.46667 5.72619 5.7262 1.46667 11 1.46667Z" fill="#CECFCF"/>
<path fill-rule="evenodd" clip-rule="evenodd" d="M14.408 11.6626C14.6765 11.9311 14.6765 12.3664 14.4081 12.6349L11.4919 15.5516C11.3629 15.6805 11.1881 15.753 11.0057 15.753C10.8234 15.753 10.6485 15.6806 10.5196 15.5516L7.60275 12.635C7.33426 12.3665 7.33425 11.9312 7.60273 11.6627C7.87121 11.3942 8.30651 11.3942 8.575 11.6627L11.0056 14.0932L13.4357 11.6627C13.7042 11.3942 14.1395 11.3942 14.408 11.6626Z" fill="#CECFCF"/>
<path fill-rule="evenodd" clip-rule="evenodd" d="M11.0004 14.2C10.669 14.2 10.4004 13.9313 10.4004 13.6L10.4004 7.59995C10.4004 7.26858 10.669 6.99995 11.0004 6.99995C11.3318 6.99995 11.6004 7.26858 11.6004 7.59995L11.6004 13.6C11.6004 13.9313 11.3318 14.2 11.0004 14.2Z" fill="#CECFCF"/>
</svg>
