<svg width="30" height="28" viewBox="0 0 30 28" fill="none" xmlns="http://www.w3.org/2000/svg">
<path d="M15 2C8.38206 2 3 7.38205 3 14C3 20.6179 8.38206 26 15 26C21.6179 26 27 20.6179 27 14C27 7.38205 21.6179 2 15 2ZM15 3.6C20.7532 3.6 25.4 8.24676 25.4 14C25.4 19.7532 20.7532 24.4 15 24.4C9.24676 24.4 4.6 19.7532 4.6 14C4.6 8.24676 9.24676 3.6 15 3.6Z" fill="#4CAE4C"/>
<path fill-rule="evenodd" clip-rule="evenodd" d="M21 8.90759L14.7943 19L10 15.0306L11.0204 13.7105L14.3934 16.5032L19.6219 8L21 8.90759Z" fill="#4CAE4C"/>
</svg>
