<svg width="38" height="38" viewBox="0 0 38 38" fill="none" xmlns="http://www.w3.org/2000/svg">
<path d="M19 34C27.2843 34 34 27.2843 34 19C34 10.7157 27.2843 4 19 4C10.7157 4 4 10.7157 4 19C4 27.2843 10.7157 34 19 34Z" fill="#D02D42" fill-opacity="0.2"/>
<path d="M37.5 19C37.5 29.2173 29.2173 37.5 19 37.5C8.78273 37.5 0.5 29.2173 0.5 19C0.5 8.78273 8.78273 0.5 19 0.5C29.2173 0.5 37.5 8.78273 37.5 19Z" stroke="#D02D42" stroke-opacity="0.3"/>
<path d="M19.8222 21.2909L20 13H18L18.1778 21.2909H19.8222ZM19.8778 25V22.4825H18.1222V25H19.8778Z" fill="#D02D42"/>
</svg>
