<svg width="21" height="20" viewBox="0 0 21 20" fill="none" xmlns="http://www.w3.org/2000/svg">
<path d="M11.1841 8.25294C10.3589 8.25294 9.59762 8.71625 9.19724 9.46194C9.15056 9.549 9.14537 9.65356 9.18368 9.74495C9.22178 9.83633 9.29878 9.90446 9.39234 9.92916C9.68719 10.0074 9.89326 10.2813 9.89326 10.595C9.89326 10.9087 9.68739 11.1826 9.39234 11.2608C9.29898 11.2857 9.22178 11.3536 9.18368 11.445C9.14557 11.5364 9.15056 11.641 9.19724 11.728C9.59762 12.4739 10.3589 12.9372 11.1841 12.9372C12.4359 12.9372 13.4543 11.8865 13.4543 10.595C13.4543 9.30346 12.4359 8.25294 11.1841 8.25294Z" fill="#2F99CC"/>
<path d="M20.1079 10.3536C19.2184 8.76712 17.9393 7.43648 16.4088 6.50575C14.8318 5.54662 13.0255 5.03968 11.185 5.03968C9.34451 5.03968 7.53814 5.54662 5.96118 6.50575C4.4307 7.43668 3.15158 8.76712 2.26206 10.3536C2.17827 10.503 2.17827 10.6872 2.26206 10.8367C3.15158 12.4231 4.4307 13.7538 5.96118 14.6845C7.53814 15.6436 9.34451 16.1506 11.185 16.1506C13.0255 16.1506 14.8318 15.6436 16.4088 14.6845C17.9393 13.7538 19.2184 12.4231 20.1079 10.8367C20.1917 10.6874 20.1917 10.503 20.1079 10.3536ZM11.185 15.1645C8.74305 15.1645 6.75634 13.1147 6.75634 10.5952C6.75634 8.07576 8.74305 6.02598 11.185 6.02598C13.6269 6.02598 15.6136 8.07576 15.6136 10.5952C15.6136 13.1147 13.6269 15.1645 11.185 15.1645ZM3.21142 10.5952C4.01217 9.25862 5.12233 8.13586 6.43596 7.33686C6.67255 7.19299 6.91533 7.06147 7.1625 6.94004C6.32864 7.91563 5.82114 9.19502 5.82114 10.595C5.82114 11.995 6.32864 13.2744 7.1625 14.25C6.91533 14.1288 6.67255 13.997 6.43596 13.8532C5.12233 13.0546 4.01237 11.9318 3.21142 10.5952ZM15.934 13.8536C15.6974 13.9975 15.4546 14.129 15.2075 14.2504C16.0413 13.2746 16.5488 11.9954 16.5488 10.5954C16.5488 9.19543 16.0413 7.91604 15.2075 6.94045C15.4546 7.06168 15.6974 7.1932 15.934 7.33727C17.2477 8.13586 18.3576 9.25862 19.1586 10.5952C18.3576 11.9318 17.2477 13.0546 15.934 13.8536Z" fill="#2F99CC"/>
</svg>
