<svg width="9" height="14" viewBox="0 0 9 14" fill="none" xmlns="http://www.w3.org/2000/svg">
<path d="M6.48643 9.20996L0.6 9.20996C0.268629 9.20996 1.44865e-08 8.94133 0 8.60996C-1.44829e-08 8.27859 0.268629 8.00996 0.6 8.00996L6.49874 8.00996L4.66215 6.17368C4.39364 5.90521 4.3936 5.46991 4.66207 5.20141C4.93053 4.9329 5.36583 4.93286 5.63434 5.20132L8.55102 8.11751C8.67996 8.24644 8.75241 8.42131 8.75242 8.60365C8.75243 8.786 8.68 8.96087 8.55107 9.08981L5.63439 12.0066C5.36591 12.2751 4.93061 12.2751 4.66212 12.0066C4.39363 11.7382 4.39362 11.3029 4.6621 11.0344L6.48643 9.20996Z" fill="#2F99CC"/>
</svg>
