<svg width="70" height="30" viewBox="0 0 70 30" fill="none" xmlns="http://www.w3.org/2000/svg">
<path fill-rule="evenodd" clip-rule="evenodd" d="M58.3435 0H58.6468C58.8917 0 59.0901 0.198482 59.0901 0.443322V4.31656C59.0901 4.56139 58.8917 4.75988 58.6468 4.75988H58.3435C58.0986 4.75988 57.9002 4.56139 57.9002 4.31656V0.443322C57.9002 0.198482 58.0986 0 58.3435 0ZM31.0182 0.737667C31.132 0.851436 31.1959 1.00574 31.1959 1.16663L31.1492 4.80654C31.1492 4.96743 31.0853 5.12174 30.9716 5.23551C30.8578 5.34928 30.7035 5.41319 30.5426 5.41319H29.376C29.2955 5.41319 29.2184 5.44515 29.1615 5.50203C29.1046 5.55892 29.0726 5.63607 29.0726 5.71652V27.8476C29.0742 27.9283 29.0596 28.0084 29.0298 28.0833C29.0001 28.1583 28.9556 28.2266 28.8991 28.2841C28.8426 28.3417 28.7752 28.3874 28.7009 28.4187C28.6265 28.4499 28.5466 28.4659 28.466 28.4659L23.4494 28.4659H17.8613C17.7553 28.4636 17.6516 28.4346 17.5599 28.3816C17.4681 28.3286 17.3912 28.2532 17.3363 28.1626L10.4648 16.4962L10.4648 16.4962H9.13468C8.29707 16.4962 7.61805 15.8172 7.61805 14.9796V13.9646C7.61805 13.127 8.29707 12.448 9.13468 12.448H10.5114L16.9629 0.898314C17.018 0.805231 17.0966 0.728231 17.1908 0.675005C17.2849 0.621779 17.3914 0.594189 17.4996 0.594989H23.1578V0.559983H30.5893C30.7502 0.559983 30.9045 0.623897 31.0182 0.737667ZM23.1578 27.9601V1.08964L15.5046 14.0696C15.4526 14.1644 15.4253 14.2707 15.4253 14.3788C15.4253 14.4869 15.4526 14.5932 15.5046 14.688L23.1578 27.9601ZM5.26153 0.629978H0.606651C0.271607 0.629978 0 0.901585 0 1.23663V27.8593C0 28.1943 0.271607 28.4659 0.606651 28.4659H5.26153C5.59658 28.4659 5.86818 28.1943 5.86818 27.8593V1.23663C5.86818 0.901585 5.59658 0.629978 5.26153 0.629978ZM38.954 1.23663C38.954 1.15696 38.9697 1.07808 39.0002 1.00447C39.0307 0.930871 39.0754 0.863994 39.1317 0.807662C39.188 0.751329 39.2549 0.706643 39.3285 0.676156C39.4021 0.645669 39.481 0.629978 39.5607 0.629978H46.3738C46.5347 0.629978 46.689 0.693893 46.8028 0.807662C46.9166 0.921431 46.9805 1.07573 46.9805 1.23663V7.94177C47.5453 4.83164 50.3896 0.472178 55.497 0.139992C55.5801 0.135267 55.6633 0.147378 55.7416 0.175597C55.82 0.203816 55.8918 0.247563 55.9528 0.304214C56.0138 0.360866 56.0627 0.429254 56.0967 0.50528C56.1306 0.581305 56.1489 0.6634 56.1503 0.746643V4.35155C56.1525 4.48967 56.1057 4.62411 56.0181 4.73093C55.9305 4.83775 55.8079 4.91002 55.672 4.93487C54.679 5.10418 53.7872 5.64386 53.1766 6.44501C52.566 7.24615 52.2821 8.24909 52.3821 9.25142V19.7512C52.3254 20.7391 52.6304 21.7139 53.2402 22.4933C53.85 23.2727 54.7227 23.8034 55.6953 23.986C55.8258 24.0218 55.941 24.0993 56.0231 24.2068C56.1053 24.3143 56.15 24.4457 56.1503 24.581V28.2793C56.1489 28.3625 56.1306 28.4446 56.0967 28.5206C56.0627 28.5967 56.0138 28.665 55.9528 28.7217C55.8918 28.7783 55.82 28.8221 55.7416 28.8503C55.6633 28.8785 55.5801 28.8906 55.497 28.8859C50.3896 28.5433 47.5453 24.1181 46.9805 20.8785V27.8826C46.982 27.9632 46.9675 28.0434 46.9377 28.1183C46.9079 28.1933 46.8635 28.2616 46.807 28.3191C46.7505 28.3767 46.6831 28.4224 46.6087 28.4537C46.5343 28.4849 46.4545 28.5009 46.3738 28.5009H41.7073C41.6266 28.5009 41.5468 28.4849 41.4724 28.4537C41.398 28.4224 41.3306 28.3767 41.2741 28.3191C41.2176 28.2616 41.1732 28.1933 41.1434 28.1183C41.1136 28.0434 41.0991 27.9632 41.1006 27.8826V5.71651C41.0911 5.6487 41.0598 5.58583 41.0114 5.53741C40.963 5.48899 40.9001 5.45767 40.8323 5.44819H39.6657C39.5048 5.44819 39.3505 5.38427 39.2367 5.2705C39.1229 5.15673 39.059 5.00243 39.059 4.84154L38.954 1.23663ZM33.5058 0.664981H33.8091C34.0539 0.664981 34.2524 0.863463 34.2524 1.1083V4.98154C34.2524 5.22638 34.0539 5.42486 33.8091 5.42486H33.5058C33.2609 5.42486 33.0624 5.22638 33.0624 4.98154V1.1083C33.0624 0.863463 33.2609 0.664981 33.5058 0.664981ZM36.749 0.664981H36.4457C36.2009 0.664981 36.0024 0.863463 36.0024 1.1083V4.98154C36.0024 5.22638 36.2009 5.42486 36.4457 5.42486H36.749C36.9939 5.42486 37.1923 5.22638 37.1923 4.98154V1.1083C37.1923 0.863463 36.9939 0.664981 36.749 0.664981ZM58.6468 24.3244H58.3435C58.0986 24.3244 57.9002 24.5228 57.9002 24.7677V28.6409C57.9002 28.8858 58.0986 29.0842 58.3435 29.0842H58.6468C58.8917 29.0842 59.0901 28.8858 59.0901 28.6409V24.7677C59.0901 24.5228 58.8917 24.3244 58.6468 24.3244ZM61.505 0.22165C65.9732 0.629973 69.6715 5.15652 69.9981 9.15808C70.0047 9.24258 69.9934 9.32751 69.9652 9.40739C69.9369 9.48728 69.8922 9.56035 69.8339 9.6219C69.7757 9.68345 69.7051 9.73212 69.6269 9.76475C69.5487 9.79739 69.4645 9.81328 69.3798 9.8114H65.5999C65.4692 9.81193 65.3417 9.77019 65.2366 9.69241C65.1315 9.61462 65.0543 9.50495 65.0166 9.37975C64.7461 8.43859 64.2638 7.57184 63.6066 6.84589C62.9494 6.11993 62.1347 5.55402 61.225 5.19152C61.1176 5.14965 61.0243 5.07802 60.9562 4.98504C60.888 4.89207 60.8477 4.78158 60.84 4.66653V0.828301C60.8397 0.743479 60.8571 0.659518 60.8911 0.581837C60.9252 0.504157 60.9752 0.434484 61.0378 0.377317C61.1005 0.320149 61.1744 0.276758 61.2549 0.249945C61.3354 0.223133 61.4206 0.213493 61.505 0.22165ZM69.9981 19.9378C69.6598 24.0094 65.9732 28.4776 61.4934 28.8859C61.4093 28.8907 61.3251 28.8782 61.246 28.8493C61.1669 28.8204 61.0945 28.7756 61.0333 28.7177C60.9722 28.6598 60.9235 28.59 60.8902 28.5126C60.857 28.4352 60.8399 28.3518 60.84 28.2676V24.4877C60.8412 24.3636 60.8796 24.2427 60.9503 24.1408C61.0211 24.0388 61.1209 23.9605 61.2367 23.9161C62.1348 23.537 62.9388 22.9655 63.5919 22.2419C64.245 21.5182 64.7314 20.66 65.0166 19.7278C65.0522 19.6005 65.1285 19.4882 65.2338 19.4082C65.3391 19.3281 65.4677 19.2847 65.5999 19.2845H69.3915C69.4752 19.2843 69.5581 19.3014 69.6349 19.3347C69.7118 19.3681 69.7808 19.417 69.8378 19.4784C69.8948 19.5397 69.9385 19.6122 69.9661 19.6913C69.9937 19.7704 70.0046 19.8543 69.9981 19.9378Z" fill="#2F99CC"/>
</svg>
