<svg width="47" height="32" viewBox="0 0 47 32" fill="none" xmlns="http://www.w3.org/2000/svg">
<path d="M43.5 26.8653L43.4999 26.8653V26.875C43.4999 28.3252 42.324 29.5 40.8749 29.5H3.37497C1.92591 29.5 0.75 28.3252 0.75 26.875V3.12497C0.75 1.67478 1.92606 0.5 3.37497 0.5H29.97L43.7459 14.2224L43.5 26.8653Z" stroke="#E2574C"/>
<path d="M5.62497 2.5H31.9699L45.7499 16.2265V28.875C45.7499 30.3252 44.574 31.5 43.1249 31.5H5.62497C4.17591 31.5 3 30.3252 3 28.875V5.12497C3 3.67478 4.17606 2.5 5.62497 2.5Z" fill="white" stroke="#E2574C"/>
<path d="M12.5645 22.4242V13.293H15.9143C16.7593 13.293 17.4448 13.556 17.9708 14.0819C18.5054 14.5993 18.7727 15.2891 18.7727 16.1513C18.7727 17.0136 18.5054 17.712 17.9708 18.2466C17.4362 18.7812 16.7507 19.0485 15.9143 19.0485H13.8449V22.4242H12.5645ZM13.8449 17.9362H15.7074C16.2506 17.9362 16.6817 17.7767 17.0007 17.4577C17.3198 17.1386 17.4793 16.7032 17.4793 16.1513C17.4793 15.6081 17.3198 15.1813 17.0007 14.8709C16.6903 14.5605 16.2635 14.4053 15.7203 14.4053H13.8449V17.9362Z" fill="#E2574C"/>
<path d="M20.4081 22.4242V13.293H23.4475C24.853 13.293 25.9739 13.6982 26.8103 14.5087C27.6467 15.3106 28.0649 16.423 28.0649 17.8457C28.0649 19.277 27.6467 20.3979 26.8103 21.2085C25.9739 22.019 24.853 22.4242 23.4475 22.4242H20.4081ZM21.6885 21.3119H23.357C24.4003 21.3119 25.2238 21.0145 25.8274 20.4195C26.4396 19.8159 26.7457 18.958 26.7457 17.8457C26.7457 16.7506 26.4396 15.9056 25.8274 15.3106C25.2152 14.7071 24.3917 14.4053 23.357 14.4053H21.6885V21.3119Z" fill="#E2574C"/>
<path d="M29.9443 22.4242V13.293H34.9755V14.4053H31.2247V17.4189H34.4194V18.5312H31.2247V22.4242H29.9443Z" fill="#E2574C"/>
</svg>
