<svg width="45" height="30" viewBox="0 0 45 30" fill="none" xmlns="http://www.w3.org/2000/svg">
<path d="M3.87497 0.5H30.2199L43.9999 14.2265V26.875C43.9999 28.3252 42.824 29.5 41.3749 29.5H3.87497C2.42591 29.5 1.25 28.3252 1.25 26.875V3.12497C1.25 1.67478 2.42606 0.5 3.87497 0.5Z" stroke="#E2574C"/>
<path d="M10.8149 20.4242V11.293H14.1648C15.0098 11.293 15.6953 11.556 16.2213 12.0819C16.7559 12.5993 17.0232 13.2891 17.0232 14.1513C17.0232 15.0136 16.7559 15.712 16.2213 16.2466C15.6867 16.7812 15.0012 17.0485 14.1648 17.0485H12.0954V20.4242H10.8149ZM12.0954 15.9362H13.9579C14.5011 15.9362 14.9322 15.7767 15.2512 15.4577C15.5703 15.1386 15.7298 14.7032 15.7298 14.1513C15.7298 13.6081 15.5703 13.1813 15.2512 12.8709C14.9408 12.5605 14.514 12.4053 13.9708 12.4053H12.0954V15.9362Z" fill="#E2574C"/>
<path d="M18.6586 20.4242V11.293H21.698C23.1035 11.293 24.2244 11.6982 25.0608 12.5087C25.8972 13.3106 26.3154 14.423 26.3154 15.8457C26.3154 17.277 25.8972 18.3979 25.0608 19.2085C24.2244 20.019 23.1035 20.4242 21.698 20.4242H18.6586ZM19.939 19.3119H21.6075C22.6508 19.3119 23.4743 19.0145 24.0779 18.4195C24.6901 17.8159 24.9962 16.958 24.9962 15.8457C24.9962 14.7506 24.6901 13.9056 24.0779 13.3106C23.4657 12.7071 22.6422 12.4053 21.6075 12.4053H19.939V19.3119Z" fill="#E2574C"/>
<path d="M28.1947 20.4242V11.293H33.226V12.4053H29.4752V15.4189H32.6698V16.5312H29.4752V20.4242H28.1947Z" fill="#E2574C"/>
</svg>
