<svg width="14" height="14" viewBox="0 0 14 14" fill="none" xmlns="http://www.w3.org/2000/svg">
<path d="M12.468 2.26664L11.7334 1.53213C11.0226 0.822623 9.87169 0.822623 9.16091 1.53213L1.99476 8.6979C1.98956 8.70424 1.98486 8.71084 1.98055 8.71769C1.97408 8.72518 1.96837 8.73305 1.96304 8.74129C1.94972 8.76172 1.93944 8.78405 1.93246 8.8074C1.93094 8.81235 1.92726 8.81615 1.92599 8.82135L1.00713 12.6799C0.988606 12.7573 1.00662 12.8389 1.05598 12.9012C1.10521 12.9636 1.18045 13 1.26 13C1.2803 13 1.30048 12.9976 1.32027 12.993L5.17867 12.0742C5.18527 12.0726 5.19022 12.0682 5.19643 12.0662C5.2128 12.0605 5.22866 12.0531 5.24363 12.0443C5.25886 12.0364 5.27307 12.0268 5.28627 12.0159C5.29121 12.0116 5.29743 12.01 5.30212 12.0053L12.468 4.83924C13.1774 4.12847 13.1774 2.97742 12.468 2.26664ZM10.9058 5.66667L8.33333 3.09406L9.16091 2.26664L11.7334 4.83924L10.9058 5.66667ZM3.46402 9.06648L3.38916 10.3363C3.38485 10.4104 3.41238 10.4828 3.46478 10.5354C3.51731 10.5878 3.58976 10.6153 3.66386 10.611L4.93367 10.5361L4.87061 11.6135L2.09296 12.2748L2.36246 12.0053C2.46091 11.9034 2.45952 11.7412 2.35928 11.641C2.25905 11.5408 2.09702 11.5394 1.99501 11.6379L1.72539 11.9071L2.38669 9.12929L3.46402 9.06648ZM5.46478 10.3735C5.46478 10.3735 5.4823 10.16 5.39844 10.0749C5.31346 9.98877 5.09633 10.006 5.09633 10.006L3.92523 10.0749L3.99413 8.9037C3.99413 8.82135 4.0217 8.66645 3.92523 8.58104C3.8368 8.50276 3.62618 8.53613 3.62618 8.53613L2.84663 8.58104L8.05833 3.36922L10.6309 5.9417L5.41911 11.1535L5.46478 10.3735ZM12.1013 4.47205L9.52886 1.89957C10.0366 1.39282 10.8588 1.39282 11.3665 1.89957L12.1013 2.63433C12.6078 3.14236 12.6075 3.96454 12.1006 4.47205H12.1013Z" fill="#2F99CC" stroke="#2F99CC" stroke-width="0.4"/>
</svg>
