<svg width="30" height="28" viewBox="0 0 30 28" fill="none" xmlns="http://www.w3.org/2000/svg">
<path d="M15 2C8.38206 2 3 7.38205 3 14C3 20.6179 8.38206 26 15 26C21.6179 26 27 20.6179 27 14C27 7.38205 21.6179 2 15 2ZM15 3.6C20.7532 3.6 25.4 8.24676 25.4 14C25.4 19.7532 20.7532 24.4 15 24.4C9.24676 24.4 4.6 19.7532 4.6 14C4.6 8.24676 9.24676 3.6 15 3.6Z" fill="#2F99CC"/>
<path fill-rule="evenodd" clip-rule="evenodd" d="M15 8.75017C15.4142 8.75017 15.75 9.08596 15.75 9.50017L15.75 13.9999C15.75 14.4141 15.4142 14.7499 15 14.7499L10.5 14.7502C10.0858 14.7502 9.75002 14.4144 9.75 14.0002C9.74998 13.586 10.0857 13.2502 10.5 13.2502L14.25 13.25L14.25 9.50017C14.25 9.08596 14.5858 8.75017 15 8.75017Z" fill="#2F99CC"/>
<path fill-rule="evenodd" clip-rule="evenodd" d="M15.0001 19.25C14.5858 19.25 14.25 18.9143 14.25 18.5001L14.2496 14.0007C14.2496 13.8017 14.3286 13.611 14.4693 13.4703C14.6099 13.3296 14.8007 13.2506 14.9996 13.2506L19.4995 13.2505C19.9137 13.2505 20.2495 13.5863 20.2495 14.0005C20.2495 14.4147 19.9137 14.7505 19.4995 14.7505L15.7497 14.7506L15.75 18.4999C15.75 18.9142 15.4143 19.25 15.0001 19.25Z" fill="#2F99CC"/>
</svg>
