<svg width="20" height="20" viewBox="0 0 20 20" fill="none" xmlns="http://www.w3.org/2000/svg">
<path d="M9.99993 17.7142C14.2604 17.7142 17.7142 14.2604 17.7142 9.99993C17.7142 5.73945 14.2604 2.28564 9.99993 2.28564C5.73945 2.28564 2.28564 5.73945 2.28564 9.99993C2.28564 14.2604 5.73945 17.7142 9.99993 17.7142Z" fill="#2F99CC" fill-opacity="0.2"/>
<path d="M19.5 10C19.5 15.2467 15.2467 19.5 10 19.5C4.75329 19.5 0.5 15.2467 0.5 10C0.5 4.7533 4.7533 0.5 10 0.5C15.2467 0.5 19.5 4.75329 19.5 10Z" stroke="#2F99CC" stroke-opacity="0.3"/>
<path d="M8 7V13M12 13V7" stroke="#2F99CC" stroke-width="2"/>
</svg>
