<svg width="20" height="20" viewBox="0 0 20 20" fill="none" xmlns="http://www.w3.org/2000/svg">
<path d="M18.7256 18.2197L14.2877 13.542C15.518 12.0594 16.1458 10.1579 16.0438 8.22336C15.9419 6.28878 15.1179 4.46595 13.7388 3.12463C12.3598 1.7833 10.5291 1.02393 8.61812 1.00056C6.7071 0.977179 4.85885 1.69155 3.44831 2.99875C2.03777 4.30595 1.17056 6.10809 1.02261 8.0396C0.874647 9.97112 1.45702 11.8874 2.65158 13.3996C3.84614 14.9119 5.56344 15.9069 7.45512 16.1829C9.34679 16.4588 11.2712 15.995 12.8379 14.8856L17.3085 19.5998C17.489 19.7903 17.7368 19.9003 17.9974 19.9056C18.2579 19.9108 18.5098 19.811 18.6978 19.628C18.8857 19.445 18.9942 19.1938 18.9994 18.9297C19.0046 18.6656 18.9061 18.4102 18.7256 18.2197ZM8.5212 2.98557C9.62159 2.98557 10.6973 3.31634 11.6122 3.93605C12.5271 4.55576 13.2402 5.43658 13.6613 6.46712C14.0824 7.49766 14.1926 8.63164 13.9779 9.72565C13.7633 10.8197 13.2334 11.8246 12.4553 12.6133C11.6772 13.4021 10.6859 13.9392 9.60661 14.1568C8.52737 14.3744 7.40872 14.2627 6.39209 13.8359C5.37547 13.409 4.50655 12.6862 3.89521 11.7587C3.28387 10.8312 2.95757 9.74083 2.95757 8.62538C2.95757 7.12961 3.54374 5.6951 4.58712 4.63743C5.6305 3.57976 7.04564 2.98557 8.5212 2.98557Z" fill="#2F99CC"/>
</svg>
