<svg width="18" height="19" viewBox="0 0 18 19" fill="none" xmlns="http://www.w3.org/2000/svg">
<path d="M17.7256 17.2197L13.2877 12.542C14.518 11.0594 15.1458 9.15793 15.0438 7.22336C14.9419 5.28878 14.1179 3.46595 12.7388 2.12463C11.3598 0.783304 9.52914 0.0239333 7.61812 0.000556146C5.7071 -0.022821 3.85885 0.691547 2.44831 1.99875C1.03777 3.30595 0.170565 5.10809 0.0226058 7.0396C-0.125353 8.97112 0.457018 10.8874 1.65158 12.3996C2.84614 13.9119 4.56344 14.9069 6.45512 15.1829C8.34679 15.4588 10.2712 14.995 11.8379 13.8856L16.3085 18.5998C16.489 18.7903 16.7368 18.9003 16.9974 18.9056C17.2579 18.9108 17.5098 18.811 17.6978 18.628C17.8857 18.445 17.9942 18.1938 17.9994 17.9297C18.0046 17.6656 17.9061 17.4102 17.7256 17.2197ZM7.5212 1.98557C8.62159 1.98557 9.69726 2.31634 10.6122 2.93605C11.5271 3.55576 12.2402 4.43658 12.6613 5.46712C13.0824 6.49766 13.1926 7.63164 12.9779 8.72565C12.7633 9.81967 12.2334 10.8246 11.4553 11.6133C10.6772 12.4021 9.68585 12.9392 8.60661 13.1568C7.52737 13.3744 6.40872 13.2627 5.39209 12.8359C4.37547 12.409 3.50655 11.6862 2.89521 10.7587C2.28387 9.83123 1.95757 8.74083 1.95757 7.62538C1.95757 6.12961 2.54374 4.6951 3.58712 3.63743C4.6305 2.57976 6.04564 1.98557 7.5212 1.98557Z" fill="#2F99CC"/>
</svg>
