<svg width="20" height="20" viewBox="0 0 20 20" fill="none" xmlns="http://www.w3.org/2000/svg">
<path d="M9.99993 17.7142C14.2604 17.7142 17.7142 14.2604 17.7142 9.99993C17.7142 5.73945 14.2604 2.28564 9.99993 2.28564C5.73945 2.28564 2.28564 5.73945 2.28564 9.99993C2.28564 14.2604 5.73945 17.7142 9.99993 17.7142Z" fill="#999999" fill-opacity="0.2"/>
<path d="M19.5 10C19.5 15.2467 15.2467 19.5 10 19.5C4.75329 19.5 0.5 15.2467 0.5 10C0.5 4.7533 4.7533 0.5 10 0.5C15.2467 0.5 19.5 4.75329 19.5 10Z" stroke="#999999" stroke-opacity="0.3"/>
<path d="M10.1016 8.5542C9.65149 8.5542 9.23626 8.82635 9.01788 9.26438C8.99241 9.31552 8.98958 9.37694 9.01048 9.43062C9.03126 9.4843 9.07326 9.52432 9.12429 9.53883C9.28512 9.58477 9.39752 9.74569 9.39752 9.92995C9.39752 10.1142 9.28523 10.2751 9.12429 10.3211C9.07337 10.3357 9.03126 10.3756 9.01048 10.4293C8.98969 10.483 8.99241 10.5444 9.01788 10.5955C9.23626 11.0337 9.65149 11.3058 10.1016 11.3058C10.7844 11.3058 11.3399 10.6886 11.3399 9.92995C11.3399 9.17128 10.7844 8.5542 10.1016 8.5542Z" fill="#999999" stroke="#999999" stroke-width="0.5"/>
<path d="M14.9686 9.78796C14.4834 8.85604 13.7857 8.07441 12.9509 7.52769C12.0907 6.96429 11.1054 6.6665 10.1015 6.6665C9.09762 6.6665 8.11233 6.96429 7.25217 7.52769C6.41737 8.07453 5.71966 8.85604 5.23447 9.78796C5.18877 9.87573 5.18877 9.98394 5.23447 10.0717C5.71966 11.0036 6.41737 11.7853 7.25217 12.332C8.11233 12.8954 9.09762 13.1932 10.1015 13.1932C11.1054 13.1932 12.0907 12.8954 12.9509 12.332C13.7857 11.7853 14.4834 11.0036 14.9686 10.0717C15.0143 9.98406 15.0143 9.87573 14.9686 9.78796ZM10.1015 12.6139C8.76956 12.6139 7.6859 11.4099 7.6859 9.9299C7.6859 8.44993 8.76956 7.24587 10.1015 7.24587C11.4335 7.24587 12.5172 8.44993 12.5172 9.9299C12.5172 11.4099 11.4335 12.6139 10.1015 12.6139ZM5.75231 9.9299C6.18908 9.14476 6.79462 8.48524 7.51115 8.01589C7.6402 7.93138 7.77262 7.85413 7.90744 7.78279C7.4526 8.35587 7.17579 9.1074 7.17579 9.92978C7.17579 10.7522 7.4526 11.5037 7.90744 12.0768C7.77262 12.0055 7.6402 11.9282 7.51115 11.8437C6.79462 11.3746 6.18919 10.715 5.75231 9.9299ZM12.6919 11.8439C12.5629 11.9284 12.4304 12.0057 12.2956 12.077C12.7504 11.5038 13.0273 10.7524 13.0273 9.93002C13.0273 9.10764 12.7504 8.35611 12.2956 7.78304C12.4304 7.85425 12.5629 7.9315 12.6919 8.01614C13.4084 8.48524 14.0139 9.14476 14.4507 9.9299C14.0139 10.715 13.4084 11.3746 12.6919 11.8439Z" fill="#999999" stroke="#999999" stroke-width="0.4"/>
</svg>
