<svg width="17" height="14" viewBox="0 0 17 14" fill="none" xmlns="http://www.w3.org/2000/svg">
<path fill-rule="evenodd" clip-rule="evenodd" d="M13.7567 5.48952H13.3069C13.1507 5.48952 13.0129 5.3931 12.9633 5.24846L12.8942 5.04727C12.8504 4.9201 12.884 4.78192 12.9816 4.68702L13.2838 4.3932C13.7294 3.95968 13.7294 3.25512 13.2838 2.82198L12.7969 2.34861C12.3655 1.92876 11.6126 1.92876 11.1812 2.34861L10.8785 2.64243C10.7809 2.73733 10.6384 2.7696 10.5084 2.72746L10.3007 2.66027C10.1527 2.61206 10.0531 2.47805 10.0531 2.32659V1.8889C10.0531 1.2762 9.54041 0.777771 8.91019 0.777771H8.08903C7.45842 0.777771 6.94573 1.2762 6.94573 1.8889V2.32659C6.94573 2.47805 6.84616 2.61206 6.69818 2.66027L6.49084 2.72746C6.36003 2.76998 6.21829 2.73733 6.12067 2.64243L5.81806 2.34823C5.37253 1.91509 4.64665 1.91585 4.2019 2.34861L3.71498 2.8216C3.49944 3.03191 3.38035 3.31054 3.38035 3.6074C3.38035 3.90426 3.49944 4.18327 3.71498 4.3932L4.0176 4.68664C4.11522 4.78192 4.14841 4.91972 4.10467 5.04727L4.03595 5.24884C3.98636 5.39272 3.84813 5.48952 3.69234 5.48952H3.24252C2.61191 5.48952 2.09961 5.98795 2.09961 6.60064V7.39935C2.09961 8.01204 2.61191 8.51047 3.24252 8.51047H3.69234C3.84813 8.51047 3.98636 8.60727 4.03556 8.75077L4.10467 8.9531C4.14841 9.07989 4.11483 9.21807 4.0176 9.31297L3.71498 9.60641C3.49944 9.81672 3.38035 10.0957 3.38035 10.3926C3.38035 10.6894 3.49944 10.9681 3.71498 11.178L4.2019 11.6514C4.64704 12.0841 5.37292 12.0849 5.81806 11.6514L6.12067 11.3572C6.21868 11.2627 6.3612 11.2304 6.49084 11.2725L6.69818 11.3397C6.84616 11.3876 6.94573 11.5216 6.94573 11.6734V12.1111C6.94573 12.7238 7.45842 13.2222 8.08903 13.2222H8.91019C9.54041 13.2222 10.0531 12.7238 10.0531 12.1111V11.6734C10.0531 11.5219 10.1527 11.3876 10.3007 11.3397L10.508 11.2725C10.6404 11.2304 10.7813 11.263 10.8785 11.3576L11.1808 11.651C11.6122 12.0712 12.3662 12.0709 12.7969 11.6514L13.2838 11.178C13.7294 10.7449 13.7294 10.0399 13.2838 9.60679L12.9816 9.31297C12.884 9.21807 12.8504 9.07989 12.8938 8.9531L12.9637 8.75077C13.0129 8.60689 13.1507 8.51047 13.3069 8.51047H13.7567C14.3869 8.51047 14.8996 8.01204 14.8996 7.39935V6.60064C14.8996 5.98795 14.3869 5.48952 13.7567 5.48952ZM14.1187 7.39935C14.1187 7.59333 13.9562 7.75125 13.7567 7.75125H13.3069C12.8137 7.75125 12.378 8.05646 12.2229 8.51047L12.153 8.7128C12.0156 9.11443 12.1214 9.54985 12.4295 9.84974L12.7317 10.1436C12.8731 10.2806 12.8731 10.5042 12.7317 10.6412L12.2444 11.1146C12.1089 11.2475 11.8696 11.2479 11.7333 11.1142L11.4307 10.8204C11.1226 10.5213 10.6747 10.418 10.2612 10.552L10.0535 10.6192C9.58609 10.7711 9.27215 11.1947 9.27215 11.6734V12.1111C9.27215 12.3051 9.10972 12.463 8.91019 12.463H8.08903C7.88911 12.463 7.72667 12.3051 7.72667 12.1111V11.6734C7.72667 11.1943 7.41234 10.7707 6.94534 10.6192L6.73761 10.552C6.61774 10.5133 6.49513 10.4943 6.37369 10.4943C6.07616 10.4943 5.78682 10.6078 5.56855 10.8204L5.26593 11.1146C5.12536 11.2513 4.89538 11.2517 4.75402 11.1146L4.2675 10.6412C4.19917 10.5748 4.16129 10.4864 4.16129 10.3926C4.16129 10.2984 4.19917 10.21 4.2675 10.1436L4.56972 9.84936C4.8778 9.54985 4.98323 9.11405 4.84579 8.7128L4.77628 8.51047C4.62048 8.05646 4.18472 7.75125 3.69234 7.75125H3.24252C3.04299 7.75125 2.88055 7.59333 2.88055 7.39935V6.60064C2.88055 6.40666 3.04299 6.24874 3.24252 6.24874H3.69234C4.18511 6.24874 4.62048 5.94353 4.77667 5.48876L4.84539 5.28756C4.98323 4.88593 4.87819 4.45014 4.56972 4.15025L4.2675 3.85605C4.19917 3.78961 4.16129 3.70154 4.16129 3.6074C4.16129 3.51364 4.19917 3.42519 4.2675 3.35875L4.75402 2.88538C4.89459 2.74834 5.12458 2.74796 5.26593 2.88538L5.56855 3.1792C5.87624 3.47871 6.3245 3.58235 6.738 3.44758L6.94534 3.38039C7.41234 3.22893 7.72667 2.80528 7.72667 2.32659V1.8889C7.72667 1.69491 7.88911 1.537 8.08903 1.537H8.91019C9.10972 1.537 9.27215 1.69491 9.27215 1.8889V2.32659C9.27215 2.80528 9.58609 3.22893 10.0535 3.38039L10.2612 3.44758C10.6732 3.58121 11.1222 3.47909 11.4307 3.1792L11.7333 2.88538C11.8696 2.75251 12.1085 2.75251 12.2448 2.88538L12.7317 3.35875C12.8731 3.49579 12.8731 3.71901 12.7317 3.85643L12.4295 4.15025C12.1214 4.44976 12.0156 4.88555 12.1534 5.28756L12.2225 5.48876C12.378 5.94353 12.8137 6.24874 13.3069 6.24874H13.7567C13.9562 6.24874 14.1187 6.40666 14.1187 6.60064V7.39935ZM6.98052 5.06086H6.98013C6.79076 5.17892 6.62637 5.33874 6.50493 5.52285C5.69314 6.75469 6.04652 8.00285 6.75718 8.69375C7.17966 9.10449 7.8052 9.39261 8.50961 9.39261C8.9891 9.39261 9.5053 9.25899 10.0192 8.93898C10.2085 8.82092 10.3729 8.6611 10.4944 8.47699C11.3058 7.24515 10.952 5.99698 10.2413 5.30609C9.53108 4.61519 8.24604 4.27165 6.98052 5.06086ZM9.83681 8.06739C9.77668 8.15887 9.69156 8.24125 9.59785 8.30009C8.63456 8.89874 7.76303 8.59809 7.3093 8.1566C6.85596 7.71587 6.54515 6.86857 7.16209 5.93245C7.22262 5.84134 7.30735 5.75859 7.40145 5.69975C8.36396 5.10072 9.23549 5.40213 9.68922 5.84324C10.1429 6.28397 10.4538 7.13126 9.83681 8.06739Z" fill="#444444"/>
</svg>
