<svg width="12" height="12" viewBox="0 0 12 12" fill="none" xmlns="http://www.w3.org/2000/svg">
<path d="M0.173905 10.9298L2.99071 7.96073C2.20986 7.01969 1.81137 5.81279 1.87607 4.58486C1.94077 3.35693 2.46382 2.19993 3.33911 1.34856C4.21441 0.497184 5.3764 0.0151911 6.58938 0.000353001C7.80236 -0.0144851 8.97549 0.438944 9.87079 1.26866C10.7661 2.09837 11.3165 3.24224 11.4105 4.46823C11.5044 5.69421 11.1347 6.91051 10.3765 7.87038C9.61828 8.83025 8.52826 9.46182 7.32757 9.63697C6.12687 9.81213 4.9054 9.51775 3.91095 8.81355L1.07337 11.8058C0.958775 11.9267 0.801494 11.9965 0.636123 11.9999C0.470751 12.0032 0.310837 11.9399 0.191561 11.8237C0.0722837 11.7075 0.00341606 11.5481 0.000104904 11.3805C-0.00320625 11.2128 0.0593119 11.0507 0.173905 10.9298ZM6.65089 1.2603C5.95245 1.2603 5.26969 1.47024 4.68896 1.86359C4.10822 2.25694 3.65559 2.81602 3.38831 3.47013C3.12103 4.12424 3.05109 4.84401 3.18735 5.53841C3.32361 6.23281 3.65995 6.87066 4.15382 7.3713C4.6477 7.87193 5.27693 8.21287 5.96195 8.351C6.64698 8.48912 7.35702 8.41823 8.0023 8.14729C8.64757 7.87634 9.1991 7.41752 9.58714 6.82883C9.97517 6.24015 10.1823 5.54804 10.1823 4.84004C10.1823 3.89063 9.81023 2.98011 9.14796 2.30878C8.4857 1.63745 7.58747 1.2603 6.65089 1.2603Z" fill="#2F99CC"/>
</svg>
