<svg width="45" height="30" viewBox="0 0 45 30" fill="none" xmlns="http://www.w3.org/2000/svg">
<path d="M3.87497 0.5H30.2199L43.9999 14.2265V26.875C43.9999 28.3252 42.824 29.5 41.3749 29.5H3.87497C2.42591 29.5 1.25 28.3252 1.25 26.875V3.12497C1.25 1.67478 2.42606 0.5 3.87497 0.5Z" stroke="#999999"/>
<path d="M10.8145 20.4242V11.293H14.1643C15.0093 11.293 15.6948 11.556 16.2208 12.0819C16.7554 12.5993 17.0227 13.2891 17.0227 14.1513C17.0227 15.0136 16.7554 15.712 16.2208 16.2466C15.6862 16.7812 15.0007 17.0485 14.1643 17.0485H12.0949V20.4242H10.8145ZM12.0949 15.9362H13.9574C14.5006 15.9362 14.9317 15.7767 15.2507 15.4577C15.5698 15.1386 15.7293 14.7032 15.7293 14.1513C15.7293 13.6081 15.5698 13.1813 15.2507 12.8709C14.9403 12.5605 14.5135 12.4053 13.9703 12.4053H12.0949V15.9362Z" fill="#999999"/>
<path d="M18.6581 20.4242V11.293H21.6975C23.103 11.293 24.2239 11.6982 25.0603 12.5087C25.8967 13.3106 26.3149 14.423 26.3149 15.8457C26.3149 17.277 25.8967 18.3979 25.0603 19.2085C24.2239 20.019 23.103 20.4242 21.6975 20.4242H18.6581ZM19.9385 19.3119H21.607C22.6503 19.3119 23.4738 19.0145 24.0774 18.4195C24.6896 17.8159 24.9957 16.958 24.9957 15.8457C24.9957 14.7506 24.6896 13.9056 24.0774 13.3106C23.4652 12.7071 22.6417 12.4053 21.607 12.4053H19.9385V19.3119Z" fill="#999999"/>
<path d="M28.1943 20.4242V11.293H33.2255V12.4053H29.4747V15.4189H32.6694V16.5312H29.4747V20.4242H28.1943Z" fill="#999999"/>
</svg>
