<svg width="24" height="19" viewBox="0 0 24 19" fill="none" xmlns="http://www.w3.org/2000/svg">
<path d="M23 11.4125V17.9125H1V11.4125" stroke="#2F99CC" stroke-width="1.4" stroke-linecap="round" stroke-linejoin="round"/>
<path d="M11.7705 11.574L11.7705 0.687524C11.7705 0.356153 12.0391 0.0875243 12.3705 0.0875243C12.7019 0.0875243 12.9705 0.356153 12.9705 0.687524L12.9705 11.5863L14.8068 9.74967C15.0753 9.48116 15.5106 9.48113 15.7791 9.74959C16.0476 10.0181 16.0476 10.4534 15.7791 10.7219L12.863 13.6385C12.734 13.7675 12.5592 13.8399 12.3768 13.8399C12.1945 13.84 12.0196 13.7675 11.8907 13.6386L8.97384 10.7219C8.70535 10.4534 8.70534 10.0181 8.97382 9.74964C9.2423 9.48115 9.6776 9.48114 9.94609 9.74962L11.7705 11.574Z" fill="#2F99CC"/>
</svg>
