<svg width="45" height="30" viewBox="0 0 45 30" fill="none" xmlns="http://www.w3.org/2000/svg">
<path d="M3.62497 0.5H29.9699L43.7499 14.2265V26.875C43.7499 28.3252 42.574 29.5 41.1249 29.5H3.62497C2.17591 29.5 1 28.3252 1 26.875V3.12497C1 1.67478 2.17606 0.5 3.62497 0.5Z" stroke="#2E7D32"/>
<path d="M6.82031 20.4247L9.69162 15.7168L7.00139 11.2934H8.46291L9.89856 13.7637L10.4806 14.8502H10.5064C10.6789 14.4622 10.8643 14.1 11.0626 13.7637L12.5112 11.2934H13.9856L11.2695 15.7168L14.1538 20.4247H12.7181L11.0497 17.618L10.4806 16.5704H10.4547C10.2736 16.9325 10.0883 17.2817 9.89856 17.618L8.24303 20.4247H6.82031Z" fill="#2E7D32"/>
<path d="M15.5462 20.4247V11.2934H16.8266V19.3124H20.9267V20.4247H15.5462Z" fill="#2E7D32"/>
<path d="M21.6816 19.377L22.4059 18.407C22.699 18.6915 23.0525 18.9286 23.4664 19.1183C23.8803 19.2994 24.2942 19.39 24.7081 19.39C25.1909 19.39 25.5789 19.2736 25.8721 19.0407C26.1653 18.7993 26.3119 18.4803 26.3119 18.0836C26.3119 17.7129 26.161 17.3981 25.8592 17.1395C25.5574 16.8722 25.1866 16.648 24.7469 16.4669C24.3157 16.2858 23.8846 16.0918 23.4535 15.8849C23.0224 15.678 22.6559 15.3891 22.3541 15.0183C22.0523 14.6476 21.9014 14.1992 21.9014 13.6732C21.9014 12.9144 22.1817 12.3022 22.7421 11.8366C23.3112 11.371 24.0269 11.1382 24.8891 11.1382C25.9325 11.1382 26.7818 11.4486 27.4371 12.0694L26.8551 13.1171C26.5964 12.8756 26.2817 12.6816 25.9109 12.535C25.5488 12.3885 25.1909 12.3152 24.8374 12.3152C24.3632 12.3152 23.9708 12.4359 23.6604 12.6773C23.35 12.9101 23.1948 13.2205 23.1948 13.6085C23.1948 13.9103 23.3026 14.1776 23.5182 14.4104C23.7337 14.6432 24.0053 14.8286 24.333 14.9666C24.6606 15.0959 25.0142 15.2511 25.3936 15.4322C25.773 15.6047 26.1265 15.7857 26.4541 15.9754C26.7818 16.1651 27.0534 16.4324 27.269 16.7773C27.4845 17.1222 27.5923 17.5232 27.5923 17.9802C27.5923 18.7217 27.3336 19.3425 26.8163 19.8426C26.2989 20.3341 25.5876 20.5799 24.6822 20.5799C23.5009 20.5799 22.5007 20.1789 21.6816 19.377Z" fill="#2E7D32"/>
<path d="M28.4061 20.4247L31.2774 15.7168L28.5872 11.2934H30.0487L31.4844 13.7637L32.0664 14.8502H32.0923C32.2647 14.4622 32.4501 14.1 32.6484 13.7637L34.097 11.2934H35.5715L32.8554 15.7168L35.7396 20.4247H34.3039L32.6355 17.618L32.0664 16.5704H32.0405C31.8595 16.9325 31.6741 17.2817 31.4844 17.618L29.8288 20.4247H28.4061Z" fill="#2E7D32"/>
</svg>
